<?xml version="1.0"?><svg version="1.2" baseProfile="tiny-ps" viewBox="0 0 201 201" xmlns="http://www.w3.org/2000/svg" xmlns:xlink="http://www.w3.org/1999/xlink"><title>ztrm</title><g><g fill="#7332d6" transform="matrix(.1 0 0 -.1 0 201)"><path d="M0 1005V0h2010v2010H0V1005z"/></g><g fill="#5e2eaa" transform="matrix(.1 0 0 -.1 0 201)"><path d="M0 1939v-71l51 46 51 46 36 12 37 12 775 4 775 3 68-12 68-11 42-32c23-17 56-51 74-75l33-43v192H0v-71zm842-459-82-5-3-9-2-9 43-15 43-14 25-38 25-38 8-78 7-78-11-251-12-252-14-29-14-29-38-18-37-19 6-9 5-9h279v26l-42 14-43 15-15 30-15 30 3 185c2 102 7 214 10 250l7 65 94-205c119-259 180-383 194-392l11-7 12 10c6 5 37 67 69 137s99 210 149 312l91 185 7-145c3-80 7-209 9-288l2-142-18-20c-10-11-26-22-36-25l-19-6v-28l150 2 150 2 1 10 2 10-47 13-46 13-10 20-11 19-11 348-11 347 16 37 16 37 33 9 33 8 3 18 4 17-88-3-87-3-165-355c-183-391-170-365-177-358-3 3-79 162-168 353l-162 348-20 6c-11 3-57 4-103 1zm-699-12c-6-7-16-49-22-92l-11-80 9-9 9-9 38 59 39 58 35 12 35 12h137l137 1 4-7c3-5-98-185-225-402L99 617l5-14 5-13h569l33 64 34 65-8 8-8 7-13-9c-7-6-33-23-56-40l-43-30-174-3-173-4-6 15-5 15 220 382c122 210 221 388 221 395s-7 16-16 19-132 6-274 6H152l-9-12zM1975 177c-17-22-49-56-72-73l-42-32-68-11-68-12-775 3-775 4-37 12-36 12-51 46-51 46V0h2010v110c0 61-1 110-2 109-2 0-17-19-33-42z"/></g><g fill="#482b78" transform="matrix(.1 0 0 -.1 0 201)"><path d="M0 1939v-71l24 29c13 16 48 42 78 58l53 30 813 3 813 2 37-10c21-5 59-23 85-40l47-30 30-47 30-47v194H0v-71zm1634-474c-7-11-83-171-169-355s-160-338-164-343l-8-8-158 343c-87 189-165 351-173 361l-15 17H760v-27l31-7 31-6 33-33 32-32 13-73 12-73-11-232c-6-128-14-254-17-281l-6-50-28-28c-16-15-36-28-44-28h-16v-28h281l-4 11c-2 6-18 16-37 22l-34 11-20 28-21 28 3 211c1 117 5 233 10 258l7 47 130-280c138-297 149-318 169-318h12l23 48c13 26 43 90 67 143 50 112 202 420 213 432l8 8 12-263 12-263-7-33-7-34-33-16c-19-8-34-21-34-27v-11l150 1h150v25h-22c-13 0-37 9-54 19l-31 19-6 63c-4 35-10 201-13 369l-7 306 12 22 12 22 36 18c20 9 36 21 37 27l1 10h-158l-13-20zm-1486 3-16-13-6-60c-3-33-7-69-9-79l-2-19 10-3 10-3 27 44 27 45 33 20 33 20h307l-7-17c-3-10-108-193-232-406L98 608l9-9 9-9 280 2 279 3 32 60c18 33 33 63 33 68 0 15-27 6-46-14-10-12-36-30-56-40l-37-19H258l4 24c3 13 103 193 222 400l218 377-12 14-12 15H164l-16-12zM1978 175l-27-45-48-30c-26-17-64-35-85-40l-37-10-813 2-813 3-53 30c-30 16-65 42-78 58L0 172V0h2010v110c0 61-1 110-2 110-2 0-15-21-30-45z"/></g><g fill="#182b50" transform="matrix(.1 0 0 -.1 0 201)"><path d="M0 1943v-67l37 36c21 20 54 44 73 54l35 19h1690l40-22c41-22 104-82 123-118l11-20 1 93v92H0v-67zm760-473c0-6 8-13 18-16 9-3 31-12 48-20l31-16 23-39 22-40 5-77 6-77-13-239-12-239-11-36-12-36-37-18c-21-10-38-22-38-25v-7h140c77 0 140 3 140 6s-20 14-45 24l-45 17-17 31-16 32 6 232c4 127 10 241 15 252l7 21 139-295c77-163 143-298 148-302l10-5 13 13c6 8 54 104 105 214s118 250 149 310l56 110 6-95c4-52 10-183 14-292l8-196-25-24c-13-12-33-28-44-35l-19-12 133-2c72-1 139-3 147-3 8-1 16 4 17 9l2 10-20 3c-10 2-31 8-46 14l-28 10-10 37-10 36-10 320c-10 317-9 349 13 392l10 23 34 12c18 7 33 16 33 20v9l-81-3-80-3-167-357c-92-197-169-358-172-358-8 0-40 67-197 405-74 159-139 296-145 302l-10 13H760v-10zm-624-27c-3-16-8-56-11-90l-7-63h9c4 0 19 21 33 46l24 47 31 18 30 19h315v-11c0-6-102-186-226-400L108 620l6-15 5-15h536l11 8c17 11 64 97 64 116v18l-37-30c-21-16-49-35-63-43l-25-13-160-4-160-4-19 15-20 14 222 385c122 212 222 392 222 401v17H142l-6-27zM2000 200c0-19-83-101-125-123l-40-22H145l-35 19c-19 10-52 34-73 54L0 164V0h2010v105c0 58-2 105-5 105s-5-5-5-10z"/></g><g fill="#262627" transform="matrix(.1 0 0 -.1 0 201)"><path d="M760 1473c0-5 24-19 52-33l52-25 20-40 20-40 4-96c2-53-1-196-7-319l-12-223-14-33-14-34-35-17c-20-9-36-19-36-22 0-8 268-6 276 1 3 4-13 12-36 19l-43 13-19 30-20 31 6 243 6 243 8 15 8 15 140-297 140-298 12-4 12-4 51 109c134 283 206 433 234 481l30 54 6-69c4-37 10-166 14-285l8-217-17-26c-9-14-29-31-44-38l-27-12 140-5c77-3 146-3 154-1l15 5-20 7c-10 4-34 13-52 20l-34 12-8 21-8 22-12 335-12 336 12 42 11 43 40 17c21 9 39 19 39 24v7h-157l-169-360-168-360-10 3c-6 2-83 160-171 351l-161 347-15 10-14 9H760v-7zm-619-25c-9-26-24-158-17-158 2 0 16 20 30 44 14 25 39 54 55 65l29 21h324l-5-19c-2-10-104-190-226-401L109 618l5-14 5-14h536l11 8c13 8 64 106 64 122v11l-43-35-43-35-44-10-45-11H272l-11 14-12 15 12 23c6 13 106 186 220 385 115 199 209 369 209 378v15H150l-9-22z"/></g></g></svg>